PathFileType	4	(X/Y/Z)	H:\MAC\Cortex8\Teaching\Biomec1_N_2\Trimmed_walk2.trc
DataRate	CameraRate	NumFrames	NumMarkers	Units	OrigDataRate	OrigDataStartFrame	OrigNumFrames
150.00	150.00	       8	28	mm	150.00	24	       184
Frame#	Time	R.ASIS			L.ASIS			R.PSIS			L.PSIS			L.Iliac.Crest			R.Iliac.Crest			R.GTR			R.Knee			R.HF			R.TT			R.Ankle			R.Heel			R.MT1			R.MT5			L.GTR			L.Knee			L.HF			L.TT			L.Ankle			L.Heel			L.MT1			L.MT5			R.Knee.Medial			R.Ankle.Medial			R.MT2			L.Knee.Medial			L.Ankle.Medial			L.MT2			V_Mid_ASIS			V_Mid_PSIS			V_Pelvis_Origin			V_R.Hip_JC			V_R.Knee_JC_Static			V_R.TT			V_R.Ankle_JC_Static			V_L.Hip_JC			V_Mid_Hip			V_R.MT2_Static			V_R.Knee.Medial			V_R.Ankle.Medial			V_R.TT			V_L.Knee_JC_Static			V_L.TT			V_L.Ankle_JC_Static			V_L.MT2_Static			V_R.Knee_JC			V_R.Ankle_JC			V_L.Knee_JC			V_L.Ankle_JC			V_R.TT_KJC_Static			V_L.TT_KJC_Static			V_R.TT_KJC			V_L.TT_KJC			V_R.MT2			V_L.MT2			
		X1	Y1	Z1	X2	Y2	Z2	X3	Y3	Z3	X4	Y4	Z4	X5	Y5	Z5	X6	Y6	Z6	X7	Y7	Z7	X8	Y8	Z8	X9	Y9	Z9	X10	Y10	Z10	X11	Y11	Z11	X12	Y12	Z12	X13	Y13	Z13	X14	Y14	Z14	X15	Y15	Z15	X16	Y16	Z16	X17	Y17	Z17	X18	Y18	Z18	X19	Y19	Z19	X20	Y20	Z20	X21	Y21	Z21	X22	Y22	Z22	X23	Y23	Z23	X24	Y24	Z24	X25	Y25	Z25	X26	Y26	Z26	X27	Y27	Z27	X28	Y28	Z28	

24	0.153	668.31189	998.97839	-334.45776	686.30939	1001.39496	-585.90173	468.10428	996.95874	-417.70172	467.44049	996.65033	-495.83371	592.00897	1058.49194	-631.15759	588.84192	1041.72046	-297.69617	604.15399	906.72418	-270.63721	681.20514	520.79144	-263.07410	666.73657	466.83331	-258.73822	715.68951	422.09192	-304.50720	377.99088	267.27530	-320.97110	322.74249	296.41495	-380.20483	459.92188	122.09135	-358.07819	426.56625	142.79648	-276.55783	623.06592	901.96893	-661.79517	647.50800	503.84048	-609.24500	658.64081	439.99429	-604.30389	710.95142	435.29855	-539.53021	611.60425	82.17344	-550.55542	545.32184	52.54643	-492.32462	768.90265	53.70394	-482.58701	746.92468	48.88744	-571.16266	721.52979	493.61597	-387.42831	420.36301	244.74550	-401.40045	457.33566	133.30975	-321.42358	636.50220	495.84363	-468.59161	644.61713	102.78988	-460.64990	768.69550	60.77239	-519.28375																																																																																		
25	0.160	675.12421	1000.64862	-335.95944	692.56232	1002.27820	-587.83594	474.52634	998.05273	-417.71707	473.67230	997.40021	-495.81934	597.77869	1059.15967	-631.88721	595.80597	1043.54248	-298.67575	612.16602	909.03802	-270.76892	694.08044	523.28381	-263.77896	680.46057	468.87595	-259.39310	730.09698	425.12320	-305.22238	395.83206	263.28299	-322.18207	339.23520	290.78714	-381.04584	482.84131	121.44876	-359.66479	449.05377	140.22610	-278.09225	626.98486	901.97864	-662.65271	647.73065	503.96628	-610.31635	658.32727	439.90378	-605.39948	711.51208	434.96899	-541.49463	611.57178	82.21776	-550.56647	545.34937	52.65127	-492.28778	768.93085	53.81037	-482.72342	746.95093	48.78881	-571.25427	734.37836	497.19485	-387.89697	438.71750	242.48557	-402.77634	479.75009	132.47340	-323.28207	638.57294	495.78607	-469.50241	644.74164	102.92521	-460.80722	768.71082	60.77800	-519.43677																																																																																		
26	0.167	682.01215	1002.05853	-337.39642	698.30676	1002.93689	-589.15302	480.88828	998.99994	-417.67932	479.91000	998.10883	-495.70142	603.52954	1059.76221	-632.62329	602.72339	1045.19592	-299.63953	620.31335	911.36035	-271.03159	706.76245	525.67096	-264.49423	694.02887	470.65097	-260.21661	744.71997	428.08926	-306.07742	413.86459	258.85059	-323.31052	356.14609	284.49701	-381.86673	505.83487	120.40080	-361.44659	471.63562	137.80148	-279.69492	630.86389	902.01740	-663.45856	647.92767	504.08936	-611.38440	658.71783	440.01642	-606.03137	712.03821	434.65381	-543.61932	611.53223	82.25140	-550.58130	544.91730	52.95890	-492.34464	768.95941	53.91817	-482.87567	746.98706	48.67952	-571.37970	746.59680	500.74896	-388.54095	457.31946	239.73885	-404.08640	502.43338	131.41626	-325.08252	640.43756	495.82266	-470.38531	644.77521	102.92594	-461.18130	768.73474	60.79083	-519.60822																																																																																		
27	0.173	688.75507	1003.38367	-338.76718	704.03473	1003.51678	-590.39996	487.46698	999.58667	-417.37820	486.07672	998.68762	-495.59549	609.35046	1060.32263	-633.33228	609.58362	1046.69202	-300.57944	628.40051	913.58923	-270.98132	719.24377	527.85400	-265.17902	707.44684	472.28815	-261.00925	758.93311	430.72824	-307.44327	432.33142	253.98961	-324.50546	373.33997	277.68402	-382.83469	528.94043	119.07767	-363.00415	494.40582	135.40135	-281.22684	634.68585	902.26245	-665.00049	648.14301	504.21661	-612.39319	658.59863	439.96213	-607.01782	712.61884	434.31851	-545.72290	611.50641	82.28878	-550.59747	544.95642	53.01202	-492.30585	768.89178	54.24616	-483.15982	747.03223	48.58005	-571.49854	758.57898	504.40741	-389.18686	476.12073	236.50856	-405.36279	525.35657	129.99739	-326.58456	642.38159	495.88577	-471.34018	644.96558	103.14659	-461.23740	768.77972	60.80489	-519.78491																																																																																		
28	0.180	695.49146	1004.56927	-340.07654	709.76794	1004.04633	-591.61462	493.80130	999.99713	-417.35226	492.21960	999.09991	-495.41968	615.23828	1060.86816	-633.98285	616.59943	1047.87622	-301.41342	636.35706	915.67517	-270.87949	731.38849	529.98022	-265.90219	720.61792	473.77994	-261.91727	773.13184	433.61600	-308.50934	451.09875	248.63609	-325.33627	391.01685	270.37161	-383.82629	552.27563	117.45565	-364.29803	518.36230	132.21307	-282.15125	638.77191	902.31500	-665.66437	648.40442	504.33322	-613.38190	658.64484	439.91077	-607.94403	713.20404	434.00769	-547.75818	611.48895	82.33427	-550.60559	545.12848	52.93179	-492.13654	768.93103	54.33445	-483.28723	747.07031	48.47403	-571.62042	770.08966	507.89923	-389.86209	495.95901	233.43869	-406.38287	548.39246	128.32764	-327.90396	644.67242	495.93985	-472.09317	645.27972	103.27358	-461.40231	768.85950	60.80852	-519.97400																																																																																		
29	0.187	702.30463	1005.62775	-341.33624	715.43628	1004.41357	-592.76276	500.16260	1000.27087	-417.34848	498.43057	999.38635	-495.29059	621.11316	1061.37378	-634.60193	623.26843	1048.90259	-302.18640	644.40015	917.59076	-270.83612	743.49835	531.76074	-266.58383	733.50922	475.20520	-262.58820	787.20288	436.37344	-309.58694	469.97531	243.05389	-326.56107	409.02808	262.57483	-384.84467	575.38849	115.77287	-365.54602	540.54242	129.58614	-283.34140	643.03949	902.46350	-666.32886	648.75244	504.43317	-614.28253	658.81305	439.85443	-608.80615	713.82324	433.74527	-549.54218	611.47345	82.37444	-550.59686	545.16370	52.36787	-491.72354	768.97766	54.40090	-483.41406	747.11212	48.38899	-571.69458	781.40680	511.22342	-390.71219	515.28009	229.12396	-407.35577	571.59930	126.52232	-328.94186	646.79034	495.97473	-472.99438	645.43958	103.42291	-461.58893	768.88013	60.89408	-519.98920																																																																																		
30	0.193	709.23242	1006.39990	-342.52682	721.07269	1004.72083	-593.92963	506.64600	1000.53571	-417.14444	504.56586	999.58582	-495.18454	627.00214	1061.86194	-635.22742	630.09546	1049.68726	-302.97614	652.38141	919.43182	-270.65857	755.57025	533.39325	-267.35144	746.72870	476.15039	-263.62610	800.94232	439.03906	-310.65717	489.21103	236.89487	-327.70203	427.44897	254.37405	-385.87033	598.82318	113.54520	-366.16721	564.08466	126.32442	-284.30203	647.33057	902.57037	-666.95728	649.17749	504.52957	-615.13708	659.10101	439.80414	-609.58258	714.55426	433.52151	-551.07086	611.54822	82.37170	-550.42755	545.68585	52.56368	-491.59561	769.13849	54.22707	-483.42447	747.15338	48.30553	-571.78363	792.50293	514.31366	-391.65384	534.78149	224.60545	-408.26804	595.43146	124.59008	-329.94873	648.98163	495.97836	-473.87616	645.60553	103.52808	-461.66101	768.92493	60.87349	-520.11243																																																																																		
31	0.200	715.91663	1007.06842	-343.71332	726.77258	1004.93256	-595.04315	513.00104	1000.77264	-417.05826	510.68958	999.77344	-495.09671	632.88025	1062.28577	-635.79047	636.89392	1050.28076	-303.65814	660.37531	921.08368	-270.38580	767.46832	534.82324	-268.13397	759.27344	477.24118	-264.61703	814.15753	441.79449	-312.40863	508.70068	230.53436	-328.70242	446.28625	245.83374	-386.83630	622.07751	110.68270	-366.91406	586.49036	123.08365	-285.19690	651.75897	902.60852	-667.52502	649.72809	504.59158	-615.91010	659.53082	439.75137	-610.26373	715.33508	433.29102	-552.25360	611.55188	82.43964	-550.39313	545.67615	52.96850	-491.87289	769.18811	54.24421	-483.53903	747.21082	48.22516	-571.86243	803.32440	517.12836	-392.63010	554.86993	219.76375	-409.08353	618.38184	122.43195	-330.59259	652.17029	496.00012	-475.25769	644.87714	103.22762	-461.74600	768.97815	60.83075	-520.22388																																																																																		
